<mxfile host="Electron" modified="2024-12-04T14:26:00.038Z" agent="Mozilla/5.0 (Windows NT 10.0; Win64; x64) AppleWebKit/537.36 (KHTML, like Gecko) draw.io/22.1.21 Chrome/120.0.6099.109 Electron/28.1.0 Safari/537.36" etag="Pbk2n1nt8xCIvXa6sJjV" version="22.1.21" type="device">
  <diagram id="prtHgNgQTEPvFCAcTncT" name="Page-1">
    <mxGraphModel dx="2755" dy="1038" grid="1" gridSize="10" guides="1" tooltips="1" connect="1" arrows="1" fold="1" page="1" pageScale="1" pageWidth="827" pageHeight="1169" math="0" shadow="0">
      <root>
        <mxCell id="0" />
        <mxCell id="1" parent="0" />
        <mxCell id="VuteKfOMMpEfuud1sA3O-1" value="皇帝（公孙轩辕），有熊" style="rounded=1;whiteSpace=wrap;html=1;" parent="1" vertex="1">
          <mxGeometry x="170" y="160" width="140" height="40" as="geometry" />
        </mxCell>
        <mxCell id="VuteKfOMMpEfuud1sA3O-3" value="嫘祖（西陵之女）" style="rounded=1;whiteSpace=wrap;html=1;" parent="1" vertex="1">
          <mxGeometry x="330" y="160" width="140" height="40" as="geometry" />
        </mxCell>
        <mxCell id="VuteKfOMMpEfuud1sA3O-15" value="" style="verticalLabelPosition=bottom;shadow=0;dashed=0;align=center;html=1;verticalAlign=top;strokeWidth=1;shape=mxgraph.mockup.containers.userMale;strokeColor=#d6b656;strokeColor2=#008cff;fillColor=#fff2cc;" parent="1" vertex="1">
          <mxGeometry x="130" y="160" width="40" height="40" as="geometry" />
        </mxCell>
        <mxCell id="VuteKfOMMpEfuud1sA3O-16" value="" style="verticalLabelPosition=bottom;shadow=0;dashed=0;align=center;html=1;verticalAlign=top;strokeWidth=1;shape=mxgraph.mockup.containers.userFemale;strokeColor=#666666;strokeColor2=#008cff;" parent="1" vertex="1">
          <mxGeometry x="470" y="160" width="40" height="40" as="geometry" />
        </mxCell>
        <mxCell id="VuteKfOMMpEfuud1sA3O-17" value="玄嚣（青阳）" style="rounded=1;whiteSpace=wrap;html=1;" parent="1" vertex="1">
          <mxGeometry x="70" y="294.17" width="130" height="40" as="geometry" />
        </mxCell>
        <mxCell id="VuteKfOMMpEfuud1sA3O-18" value="" style="verticalLabelPosition=bottom;shadow=0;dashed=0;align=center;html=1;verticalAlign=top;strokeWidth=1;shape=mxgraph.mockup.containers.userMale;strokeColor=#666666;strokeColor2=#008cff;" parent="1" vertex="1">
          <mxGeometry x="40" y="286.11" width="40" height="40" as="geometry" />
        </mxCell>
        <mxCell id="VuteKfOMMpEfuud1sA3O-19" value="昌意" style="rounded=1;whiteSpace=wrap;html=1;" parent="1" vertex="1">
          <mxGeometry x="610" y="294.17" width="130" height="40" as="geometry" />
        </mxCell>
        <mxCell id="VuteKfOMMpEfuud1sA3O-20" value="" style="verticalLabelPosition=bottom;shadow=0;dashed=0;align=center;html=1;verticalAlign=top;strokeWidth=1;shape=mxgraph.mockup.containers.userMale;strokeColor=#666666;strokeColor2=#008cff;" parent="1" vertex="1">
          <mxGeometry x="580" y="294.17" width="40" height="40" as="geometry" />
        </mxCell>
        <mxCell id="VuteKfOMMpEfuud1sA3O-21" value="昌仆（蜀山氏女）" style="rounded=1;whiteSpace=wrap;html=1;" parent="1" vertex="1">
          <mxGeometry x="760" y="294.17" width="140" height="40" as="geometry" />
        </mxCell>
        <mxCell id="VuteKfOMMpEfuud1sA3O-22" value="" style="verticalLabelPosition=bottom;shadow=0;dashed=0;align=center;html=1;verticalAlign=top;strokeWidth=1;shape=mxgraph.mockup.containers.userFemale;strokeColor=#666666;strokeColor2=#008cff;" parent="1" vertex="1">
          <mxGeometry x="900" y="294.17" width="40" height="40" as="geometry" />
        </mxCell>
        <mxCell id="VuteKfOMMpEfuud1sA3O-24" value="" style="shape=curlyBracket;whiteSpace=wrap;html=1;rounded=1;flipH=1;labelPosition=right;verticalLabelPosition=middle;align=left;verticalAlign=middle;rotation=90;" parent="1" vertex="1">
          <mxGeometry x="301.25" y="138.75" width="47.5" height="170" as="geometry" />
        </mxCell>
        <mxCell id="VuteKfOMMpEfuud1sA3O-26" value="" style="edgeStyle=segmentEdgeStyle;endArrow=classic;html=1;curved=0;rounded=0;endSize=8;startSize=8;entryX=0.5;entryY=0;entryDx=0;entryDy=0;exitX=0.071;exitY=0.502;exitDx=0;exitDy=0;exitPerimeter=0;" parent="1" edge="1" target="VuteKfOMMpEfuud1sA3O-17" source="VuteKfOMMpEfuud1sA3O-24">
          <mxGeometry width="50" height="50" relative="1" as="geometry">
            <mxPoint x="325" y="243" as="sourcePoint" />
            <mxPoint x="134.72000000000023" y="286.11" as="targetPoint" />
          </mxGeometry>
        </mxCell>
        <mxCell id="VuteKfOMMpEfuud1sA3O-27" value="" style="edgeStyle=segmentEdgeStyle;endArrow=classic;html=1;curved=0;rounded=0;endSize=8;startSize=8;entryX=0.5;entryY=0;entryDx=0;entryDy=0;exitX=0.07;exitY=0.499;exitDx=0;exitDy=0;exitPerimeter=0;" parent="1" source="VuteKfOMMpEfuud1sA3O-24" target="VuteKfOMMpEfuud1sA3O-19" edge="1">
          <mxGeometry width="50" height="50" relative="1" as="geometry">
            <mxPoint x="330" y="240.00249999999997" as="sourcePoint" />
            <mxPoint x="470.21" y="287.16" as="targetPoint" />
            <Array as="points">
              <mxPoint x="465" y="244" />
              <mxPoint x="475" y="244" />
            </Array>
          </mxGeometry>
        </mxCell>
        <mxCell id="VuteKfOMMpEfuud1sA3O-28" value="" style="shape=curlyBracket;whiteSpace=wrap;html=1;rounded=1;flipH=1;labelPosition=right;verticalLabelPosition=middle;align=left;verticalAlign=middle;rotation=90;" parent="1" vertex="1">
          <mxGeometry x="740" y="274.17" width="47.5" height="170" as="geometry" />
        </mxCell>
        <mxCell id="VuteKfOMMpEfuud1sA3O-29" value="颛顼（zhuān xū）帝，高阳" style="rounded=1;whiteSpace=wrap;html=1;" parent="1" vertex="1">
          <mxGeometry x="683.13" y="414.17" width="161.25" height="40" as="geometry" />
        </mxCell>
        <mxCell id="VuteKfOMMpEfuud1sA3O-30" value="" style="verticalLabelPosition=bottom;shadow=0;dashed=0;align=center;html=1;verticalAlign=top;strokeWidth=1;shape=mxgraph.mockup.containers.userMale;strokeColor=#d6b656;strokeColor2=#008cff;fillColor=#fff2cc;" parent="1" vertex="1">
          <mxGeometry x="643.13" y="414.17" width="40" height="40" as="geometry" />
        </mxCell>
        <mxCell id="VuteKfOMMpEfuud1sA3O-31" value="" style="edgeStyle=segmentEdgeStyle;endArrow=classic;html=1;curved=0;rounded=0;endSize=8;startSize=8;exitX=0.067;exitY=0.499;exitDx=0;exitDy=0;exitPerimeter=0;" parent="1" source="VuteKfOMMpEfuud1sA3O-28" target="VuteKfOMMpEfuud1sA3O-29" edge="1">
          <mxGeometry width="50" height="50" relative="1" as="geometry">
            <mxPoint x="670" y="394.17" as="sourcePoint" />
            <mxPoint x="720" y="344.17" as="targetPoint" />
          </mxGeometry>
        </mxCell>
        <mxCell id="VuteKfOMMpEfuud1sA3O-32" value="穷蝉" style="rounded=1;whiteSpace=wrap;html=1;" parent="1" vertex="1">
          <mxGeometry x="730" y="504.17" width="56.87" height="40" as="geometry" />
        </mxCell>
        <mxCell id="VuteKfOMMpEfuud1sA3O-33" value="" style="verticalLabelPosition=bottom;shadow=0;dashed=0;align=center;html=1;verticalAlign=top;strokeWidth=1;shape=mxgraph.mockup.containers.userMale;strokeColor=#666666;strokeColor2=#008cff;" parent="1" vertex="1">
          <mxGeometry x="690" y="504.17" width="40" height="40" as="geometry" />
        </mxCell>
        <mxCell id="VuteKfOMMpEfuud1sA3O-34" value="" style="edgeStyle=segmentEdgeStyle;endArrow=classic;html=1;curved=0;rounded=0;endSize=8;startSize=8;exitX=0.5;exitY=1;exitDx=0;exitDy=0;entryX=0.5;entryY=0;entryDx=0;entryDy=0;" parent="1" source="VuteKfOMMpEfuud1sA3O-29" target="VuteKfOMMpEfuud1sA3O-32" edge="1">
          <mxGeometry width="50" height="50" relative="1" as="geometry">
            <mxPoint x="370" y="474.17" as="sourcePoint" />
            <mxPoint x="420" y="424.17" as="targetPoint" />
          </mxGeometry>
        </mxCell>
        <mxCell id="VuteKfOMMpEfuud1sA3O-35" value="蟜（jiǎo）极" style="rounded=1;whiteSpace=wrap;html=1;" parent="1" vertex="1">
          <mxGeometry x="80" y="406.11" width="130" height="40" as="geometry" />
        </mxCell>
        <mxCell id="VuteKfOMMpEfuud1sA3O-36" value="" style="verticalLabelPosition=bottom;shadow=0;dashed=0;align=center;html=1;verticalAlign=top;strokeWidth=1;shape=mxgraph.mockup.containers.userMale;strokeColor=#666666;strokeColor2=#008cff;" parent="1" vertex="1">
          <mxGeometry x="40" y="406.11" width="40" height="40" as="geometry" />
        </mxCell>
        <mxCell id="VuteKfOMMpEfuud1sA3O-37" value="" style="edgeStyle=segmentEdgeStyle;endArrow=classic;html=1;curved=0;rounded=0;endSize=8;startSize=8;exitX=0.5;exitY=1;exitDx=0;exitDy=0;entryX=0.5;entryY=0;entryDx=0;entryDy=0;" parent="1" source="VuteKfOMMpEfuud1sA3O-17" target="VuteKfOMMpEfuud1sA3O-35" edge="1">
          <mxGeometry width="50" height="50" relative="1" as="geometry">
            <mxPoint x="60" y="466.11" as="sourcePoint" />
            <mxPoint x="110" y="416.11" as="targetPoint" />
          </mxGeometry>
        </mxCell>
        <mxCell id="VuteKfOMMpEfuud1sA3O-38" value="帝喾（kù），高辛" style="rounded=1;whiteSpace=wrap;html=1;" parent="1" vertex="1">
          <mxGeometry x="80" y="496.11" width="130" height="40" as="geometry" />
        </mxCell>
        <mxCell id="VuteKfOMMpEfuud1sA3O-39" value="" style="verticalLabelPosition=bottom;shadow=0;dashed=0;align=center;html=1;verticalAlign=top;strokeWidth=1;shape=mxgraph.mockup.containers.userMale;strokeColor=#d6b656;strokeColor2=#008cff;fillColor=#fff2cc;" parent="1" vertex="1">
          <mxGeometry x="40" y="496.11" width="40" height="40" as="geometry" />
        </mxCell>
        <mxCell id="VuteKfOMMpEfuud1sA3O-40" value="" style="edgeStyle=segmentEdgeStyle;endArrow=classic;html=1;curved=0;rounded=0;endSize=8;startSize=8;exitX=0.5;exitY=1;exitDx=0;exitDy=0;entryX=0.5;entryY=0;entryDx=0;entryDy=0;" parent="1" source="VuteKfOMMpEfuud1sA3O-35" target="VuteKfOMMpEfuud1sA3O-38" edge="1">
          <mxGeometry width="50" height="50" relative="1" as="geometry">
            <mxPoint x="145" y="336.11" as="sourcePoint" />
            <mxPoint x="155" y="416.11" as="targetPoint" />
          </mxGeometry>
        </mxCell>
        <mxCell id="VuteKfOMMpEfuud1sA3O-41" value="陈锋氏女" style="rounded=1;whiteSpace=wrap;html=1;" parent="1" vertex="1">
          <mxGeometry x="-180" y="496.11" width="140" height="40" as="geometry" />
        </mxCell>
        <mxCell id="VuteKfOMMpEfuud1sA3O-42" value="" style="verticalLabelPosition=bottom;shadow=0;dashed=0;align=center;html=1;verticalAlign=top;strokeWidth=1;shape=mxgraph.mockup.containers.userFemale;strokeColor=#666666;strokeColor2=#008cff;" parent="1" vertex="1">
          <mxGeometry x="-40" y="496.11" width="40" height="40" as="geometry" />
        </mxCell>
        <mxCell id="VuteKfOMMpEfuud1sA3O-43" value="" style="shape=curlyBracket;whiteSpace=wrap;html=1;rounded=1;flipH=1;labelPosition=right;verticalLabelPosition=middle;align=left;verticalAlign=middle;rotation=90;" parent="1" vertex="1">
          <mxGeometry x="205.97" y="475.97" width="47.5" height="178.05" as="geometry" />
        </mxCell>
        <mxCell id="VuteKfOMMpEfuud1sA3O-46" value="娵訾（jū zī）氏女" style="rounded=1;whiteSpace=wrap;html=1;" parent="1" vertex="1">
          <mxGeometry x="235" y="496.11" width="140" height="40" as="geometry" />
        </mxCell>
        <mxCell id="VuteKfOMMpEfuud1sA3O-47" value="" style="verticalLabelPosition=bottom;shadow=0;dashed=0;align=center;html=1;verticalAlign=top;strokeWidth=1;shape=mxgraph.mockup.containers.userFemale;strokeColor=#666666;strokeColor2=#008cff;" parent="1" vertex="1">
          <mxGeometry x="375" y="496.11" width="40" height="40" as="geometry" />
        </mxCell>
        <mxCell id="VuteKfOMMpEfuud1sA3O-48" value="" style="shape=curlyBracket;whiteSpace=wrap;html=1;rounded=1;flipH=1;labelPosition=right;verticalLabelPosition=middle;align=left;verticalAlign=middle;rotation=90;" parent="1" vertex="1">
          <mxGeometry x="-10" y="440" width="47.5" height="250" as="geometry" />
        </mxCell>
        <mxCell id="VuteKfOMMpEfuud1sA3O-49" value="挚" style="rounded=1;whiteSpace=wrap;html=1;" parent="1" vertex="1">
          <mxGeometry x="160" y="610" width="130" height="40" as="geometry" />
        </mxCell>
        <mxCell id="VuteKfOMMpEfuud1sA3O-50" value="" style="verticalLabelPosition=bottom;shadow=0;dashed=0;align=center;html=1;verticalAlign=top;strokeWidth=1;shape=mxgraph.mockup.containers.userMale;strokeColor=#d6b656;strokeColor2=#008cff;fillColor=#fff2cc;" parent="1" vertex="1">
          <mxGeometry x="120" y="610" width="40" height="40" as="geometry" />
        </mxCell>
        <mxCell id="VuteKfOMMpEfuud1sA3O-51" value="" style="edgeStyle=segmentEdgeStyle;endArrow=classic;html=1;curved=0;rounded=0;endSize=8;startSize=8;exitX=0.1;exitY=0.5;exitDx=0;exitDy=0;exitPerimeter=0;" parent="1" source="VuteKfOMMpEfuud1sA3O-43" edge="1">
          <mxGeometry width="50" height="50" relative="1" as="geometry">
            <mxPoint x="155" y="456" as="sourcePoint" />
            <mxPoint x="230" y="610" as="targetPoint" />
          </mxGeometry>
        </mxCell>
        <mxCell id="VuteKfOMMpEfuud1sA3O-55" value="" style="edgeStyle=segmentEdgeStyle;endArrow=classic;html=1;curved=0;rounded=0;endSize=8;startSize=8;exitX=0.1;exitY=0.5;exitDx=0;exitDy=0;exitPerimeter=0;entryX=0.5;entryY=0;entryDx=0;entryDy=0;" parent="1" source="VuteKfOMMpEfuud1sA3O-48" edge="1">
          <mxGeometry width="50" height="50" relative="1" as="geometry">
            <mxPoint x="-11.25" y="620" as="sourcePoint" />
            <mxPoint x="14.375" y="612.9900000000001" as="targetPoint" />
          </mxGeometry>
        </mxCell>
        <mxCell id="VuteKfOMMpEfuud1sA3O-57" value="" style="verticalLabelPosition=bottom;shadow=0;dashed=0;align=center;html=1;verticalAlign=top;strokeWidth=1;shape=mxgraph.mockup.containers.userMale;strokeColor=#d6b656;strokeColor2=#008cff;fillColor=#fff2cc;" parent="1" vertex="1">
          <mxGeometry x="-90" y="614.02" width="40" height="40" as="geometry" />
        </mxCell>
        <mxCell id="VuteKfOMMpEfuud1sA3O-58" value="尧帝（放勋），陶唐" style="rounded=1;whiteSpace=wrap;html=1;" parent="1" vertex="1">
          <mxGeometry x="-50" y="614.02" width="130" height="40" as="geometry" />
        </mxCell>
        <mxCell id="VuteKfOMMpEfuud1sA3O-61" value="" style="verticalLabelPosition=bottom;shadow=0;dashed=0;align=center;html=1;verticalAlign=top;strokeWidth=1;shape=mxgraph.mockup.containers.userMale;strokeColor=#d6b656;strokeColor2=#008cff;fillColor=#fff2cc;" parent="1" vertex="1">
          <mxGeometry x="-90" y="730" width="40" height="40" as="geometry" />
        </mxCell>
        <mxCell id="VuteKfOMMpEfuud1sA3O-62" value="舜帝（姚重华），有虞" style="rounded=1;whiteSpace=wrap;html=1;" parent="1" vertex="1">
          <mxGeometry x="-50" y="730" width="130" height="40" as="geometry" />
        </mxCell>
        <mxCell id="VuteKfOMMpEfuud1sA3O-63" value="" style="shape=flexArrow;endArrow=classic;html=1;rounded=0;exitX=0.5;exitY=1;exitDx=0;exitDy=0;entryX=0.5;entryY=0;entryDx=0;entryDy=0;" parent="1" source="VuteKfOMMpEfuud1sA3O-58" target="VuteKfOMMpEfuud1sA3O-62" edge="1">
          <mxGeometry width="50" height="50" relative="1" as="geometry">
            <mxPoint x="160" y="700" as="sourcePoint" />
            <mxPoint x="210" y="650" as="targetPoint" />
          </mxGeometry>
        </mxCell>
        <mxCell id="VuteKfOMMpEfuud1sA3O-64" value="禅让" style="text;html=1;align=center;verticalAlign=middle;resizable=0;points=[];autosize=1;strokeColor=none;fillColor=none;" parent="1" vertex="1">
          <mxGeometry x="20" y="668" width="50" height="30" as="geometry" />
        </mxCell>
        <mxCell id="VuteKfOMMpEfuud1sA3O-65" value="敬康" style="rounded=1;whiteSpace=wrap;html=1;" parent="1" vertex="1">
          <mxGeometry x="730" y="614.02" width="56.87" height="40" as="geometry" />
        </mxCell>
        <mxCell id="VuteKfOMMpEfuud1sA3O-66" value="" style="verticalLabelPosition=bottom;shadow=0;dashed=0;align=center;html=1;verticalAlign=top;strokeWidth=1;shape=mxgraph.mockup.containers.userMale;strokeColor=#666666;strokeColor2=#008cff;" parent="1" vertex="1">
          <mxGeometry x="690" y="614.02" width="40" height="40" as="geometry" />
        </mxCell>
        <mxCell id="VuteKfOMMpEfuud1sA3O-67" value="句望" style="rounded=1;whiteSpace=wrap;html=1;" parent="1" vertex="1">
          <mxGeometry x="730.63" y="750" width="56.87" height="40" as="geometry" />
        </mxCell>
        <mxCell id="VuteKfOMMpEfuud1sA3O-68" value="" style="verticalLabelPosition=bottom;shadow=0;dashed=0;align=center;html=1;verticalAlign=top;strokeWidth=1;shape=mxgraph.mockup.containers.userMale;strokeColor=#666666;strokeColor2=#008cff;" parent="1" vertex="1">
          <mxGeometry x="690.63" y="750" width="40" height="40" as="geometry" />
        </mxCell>
        <mxCell id="VuteKfOMMpEfuud1sA3O-69" value="桥牛" style="rounded=1;whiteSpace=wrap;html=1;" parent="1" vertex="1">
          <mxGeometry x="530" y="750" width="51.25" height="40" as="geometry" />
        </mxCell>
        <mxCell id="VuteKfOMMpEfuud1sA3O-70" value="" style="verticalLabelPosition=bottom;shadow=0;dashed=0;align=center;html=1;verticalAlign=top;strokeWidth=1;shape=mxgraph.mockup.containers.userMale;strokeColor=#666666;strokeColor2=#008cff;" parent="1" vertex="1">
          <mxGeometry x="490" y="750" width="40" height="40" as="geometry" />
        </mxCell>
        <mxCell id="VuteKfOMMpEfuud1sA3O-71" value="瞽叟" style="rounded=1;whiteSpace=wrap;html=1;" parent="1" vertex="1">
          <mxGeometry x="354.09" y="750" width="60.91" height="40" as="geometry" />
        </mxCell>
        <mxCell id="VuteKfOMMpEfuud1sA3O-72" value="" style="verticalLabelPosition=bottom;shadow=0;dashed=0;align=center;html=1;verticalAlign=top;strokeWidth=1;shape=mxgraph.mockup.containers.userMale;strokeColor=#666666;strokeColor2=#008cff;" parent="1" vertex="1">
          <mxGeometry x="314.09" y="750" width="40" height="40" as="geometry" />
        </mxCell>
        <mxCell id="VuteKfOMMpEfuud1sA3O-75" value="" style="endArrow=classic;html=1;rounded=0;exitX=0.5;exitY=1;exitDx=0;exitDy=0;entryX=0.5;entryY=0;entryDx=0;entryDy=0;" parent="1" source="VuteKfOMMpEfuud1sA3O-32" target="VuteKfOMMpEfuud1sA3O-65" edge="1">
          <mxGeometry width="50" height="50" relative="1" as="geometry">
            <mxPoint x="520" y="610" as="sourcePoint" />
            <mxPoint x="760" y="610" as="targetPoint" />
          </mxGeometry>
        </mxCell>
        <mxCell id="VuteKfOMMpEfuud1sA3O-76" value="" style="endArrow=classic;html=1;rounded=0;exitX=0.5;exitY=1;exitDx=0;exitDy=0;entryX=0.5;entryY=0;entryDx=0;entryDy=0;" parent="1" target="VuteKfOMMpEfuud1sA3O-67" edge="1">
          <mxGeometry width="50" height="50" relative="1" as="geometry">
            <mxPoint x="758.27" y="654.02" as="sourcePoint" />
            <mxPoint x="758.27" y="724.02" as="targetPoint" />
          </mxGeometry>
        </mxCell>
        <mxCell id="VuteKfOMMpEfuud1sA3O-77" value="" style="endArrow=classic;html=1;rounded=0;exitX=-0.041;exitY=0.492;exitDx=0;exitDy=0;entryX=1;entryY=0.5;entryDx=0;entryDy=0;exitPerimeter=0;" parent="1" source="VuteKfOMMpEfuud1sA3O-68" target="VuteKfOMMpEfuud1sA3O-69" edge="1">
          <mxGeometry width="50" height="50" relative="1" as="geometry">
            <mxPoint x="768.27" y="684.02" as="sourcePoint" />
            <mxPoint x="769" y="760" as="targetPoint" />
          </mxGeometry>
        </mxCell>
        <mxCell id="VuteKfOMMpEfuud1sA3O-78" value="" style="endArrow=classic;html=1;rounded=0;exitX=0;exitY=0.5;exitDx=0;exitDy=0;exitPerimeter=0;" parent="1" source="VuteKfOMMpEfuud1sA3O-70" target="VuteKfOMMpEfuud1sA3O-71" edge="1">
          <mxGeometry width="50" height="50" relative="1" as="geometry">
            <mxPoint x="486" y="771" as="sourcePoint" />
            <mxPoint x="382" y="749.66" as="targetPoint" />
          </mxGeometry>
        </mxCell>
        <mxCell id="VuteKfOMMpEfuud1sA3O-82" value="" style="verticalLabelPosition=bottom;shadow=0;dashed=0;align=center;html=1;verticalAlign=top;strokeWidth=1;shape=mxgraph.mockup.containers.userFemale;strokeColor=#666666;strokeColor2=#008cff;" parent="1" vertex="1">
          <mxGeometry x="314.09" y="790" width="40" height="40" as="geometry" />
        </mxCell>
        <mxCell id="VuteKfOMMpEfuud1sA3O-83" value="舜后妈" style="rounded=1;whiteSpace=wrap;html=1;" parent="1" vertex="1">
          <mxGeometry x="354.09" y="790" width="60.91" height="40" as="geometry" />
        </mxCell>
        <mxCell id="VuteKfOMMpEfuud1sA3O-84" value="" style="verticalLabelPosition=bottom;shadow=0;dashed=0;align=center;html=1;verticalAlign=top;strokeWidth=1;shape=mxgraph.mockup.containers.userFemale;strokeColor=#666666;strokeColor2=#008cff;" parent="1" vertex="1">
          <mxGeometry x="314.09" y="710" width="40" height="40" as="geometry" />
        </mxCell>
        <mxCell id="VuteKfOMMpEfuud1sA3O-85" value="舜母" style="rounded=1;whiteSpace=wrap;html=1;" parent="1" vertex="1">
          <mxGeometry x="354.09" y="710" width="60.91" height="40" as="geometry" />
        </mxCell>
        <mxCell id="VuteKfOMMpEfuud1sA3O-86" value="" style="shape=curlyBracket;whiteSpace=wrap;html=1;rounded=1;labelPosition=left;verticalLabelPosition=middle;align=right;verticalAlign=middle;" parent="1" vertex="1">
          <mxGeometry x="294.09" y="720" width="20" height="42" as="geometry" />
        </mxCell>
        <mxCell id="VuteKfOMMpEfuud1sA3O-87" value="" style="edgeStyle=elbowEdgeStyle;elbow=horizontal;endArrow=classic;html=1;curved=0;rounded=0;endSize=8;startSize=8;entryX=1;entryY=0.5;entryDx=0;entryDy=0;exitX=0.1;exitY=0.5;exitDx=0;exitDy=0;exitPerimeter=0;" parent="1" source="VuteKfOMMpEfuud1sA3O-86" target="VuteKfOMMpEfuud1sA3O-62" edge="1">
          <mxGeometry width="50" height="50" relative="1" as="geometry">
            <mxPoint x="140" y="760" as="sourcePoint" />
            <mxPoint x="190" y="710" as="targetPoint" />
            <Array as="points">
              <mxPoint x="190" y="740" />
            </Array>
          </mxGeometry>
        </mxCell>
        <mxCell id="VuteKfOMMpEfuud1sA3O-89" value="" style="shape=curlyBracket;whiteSpace=wrap;html=1;rounded=1;labelPosition=left;verticalLabelPosition=middle;align=right;verticalAlign=middle;" parent="1" vertex="1">
          <mxGeometry x="294.09" y="780" width="20" height="40" as="geometry" />
        </mxCell>
        <mxCell id="VuteKfOMMpEfuud1sA3O-90" value="象（舜弟弟）" style="rounded=1;whiteSpace=wrap;html=1;" parent="1" vertex="1">
          <mxGeometry x="214.09000000000003" y="860" width="85.91" height="40" as="geometry" />
        </mxCell>
        <mxCell id="VuteKfOMMpEfuud1sA3O-91" value="" style="verticalLabelPosition=bottom;shadow=0;dashed=0;align=center;html=1;verticalAlign=top;strokeWidth=1;shape=mxgraph.mockup.containers.userMale;strokeColor=#666666;strokeColor2=#008cff;" parent="1" vertex="1">
          <mxGeometry x="380" y="980" width="40" height="40" as="geometry" />
        </mxCell>
        <mxCell id="VuteKfOMMpEfuud1sA3O-92" value="" style="edgeStyle=segmentEdgeStyle;endArrow=classic;html=1;curved=0;rounded=0;endSize=8;startSize=8;exitX=0.1;exitY=0.5;exitDx=0;exitDy=0;exitPerimeter=0;entryX=0.5;entryY=0;entryDx=0;entryDy=0;" parent="1" source="VuteKfOMMpEfuud1sA3O-89" target="VuteKfOMMpEfuud1sA3O-90" edge="1">
          <mxGeometry width="50" height="50" relative="1" as="geometry">
            <mxPoint x="305.19" y="830" as="sourcePoint" />
            <mxPoint x="244.09" y="810" as="targetPoint" />
            <Array as="points">
              <mxPoint x="257.09" y="800" />
            </Array>
          </mxGeometry>
        </mxCell>
        <mxCell id="VuteKfOMMpEfuud1sA3O-94" value="" style="verticalLabelPosition=bottom;shadow=0;dashed=0;align=center;html=1;verticalAlign=top;strokeWidth=1;shape=mxgraph.mockup.containers.userMale;strokeColor=#d6b656;strokeColor2=#008cff;fillColor=#fff2cc;" parent="1" vertex="1">
          <mxGeometry x="-90" y="980" width="40" height="40" as="geometry" />
        </mxCell>
        <mxCell id="VuteKfOMMpEfuud1sA3O-95" value="禹，夏后" style="rounded=1;whiteSpace=wrap;html=1;" parent="1" vertex="1">
          <mxGeometry x="-50" y="980" width="130" height="40" as="geometry" />
        </mxCell>
        <mxCell id="VuteKfOMMpEfuud1sA3O-96" value="禅让" style="text;html=1;align=center;verticalAlign=middle;resizable=0;points=[];autosize=1;strokeColor=none;fillColor=none;" parent="1" vertex="1">
          <mxGeometry x="20" y="800" width="50" height="30" as="geometry" />
        </mxCell>
        <mxCell id="VuteKfOMMpEfuud1sA3O-97" value="" style="shape=flexArrow;endArrow=classic;html=1;rounded=0;exitX=0.5;exitY=1;exitDx=0;exitDy=0;entryX=0.5;entryY=0;entryDx=0;entryDy=0;" parent="1" target="VuteKfOMMpEfuud1sA3O-95" edge="1">
          <mxGeometry width="50" height="50" relative="1" as="geometry">
            <mxPoint x="15" y="769.98" as="sourcePoint" />
            <mxPoint x="15" y="845.98" as="targetPoint" />
          </mxGeometry>
        </mxCell>
        <mxCell id="rvrIUZGkRAWsagXgY7QH-2" value="鲧" style="rounded=1;whiteSpace=wrap;html=1;" vertex="1" parent="1">
          <mxGeometry x="420" y="980" width="130" height="40" as="geometry" />
        </mxCell>
        <mxCell id="rvrIUZGkRAWsagXgY7QH-3" value="" style="endArrow=classic;html=1;rounded=0;exitX=-0.056;exitY=0.444;exitDx=0;exitDy=0;exitPerimeter=0;" edge="1" parent="1">
          <mxGeometry width="50" height="50" relative="1" as="geometry">
            <mxPoint x="377.7600000000002" y="997.76" as="sourcePoint" />
            <mxPoint x="80" y="998" as="targetPoint" />
          </mxGeometry>
        </mxCell>
        <mxCell id="rvrIUZGkRAWsagXgY7QH-4" value="" style="endArrow=classic;html=1;rounded=0;exitX=0.75;exitY=1;exitDx=0;exitDy=0;entryX=1;entryY=0.5;entryDx=0;entryDy=0;" edge="1" parent="1" source="VuteKfOMMpEfuud1sA3O-29" target="rvrIUZGkRAWsagXgY7QH-2">
          <mxGeometry width="50" height="50" relative="1" as="geometry">
            <mxPoint x="550" y="900" as="sourcePoint" />
            <mxPoint x="850" y="990" as="targetPoint" />
            <Array as="points">
              <mxPoint x="804" y="1000" />
            </Array>
          </mxGeometry>
        </mxCell>
      </root>
    </mxGraphModel>
  </diagram>
</mxfile>
